<svg width="39" height="38" viewBox="0 0 39 38" fill="none" xmlns="http://www.w3.org/2000/svg">
<path d="M27.7812 25.3906L14.3125 11.9375C15.1875 10.1562 16.0312 7.9375 16.9688 4.15625C17.6406 1.48438 20.125 0.984375 21.5781 2.42188L29.1562 10.0156C28.8906 12.8594 27.7188 14.6094 25.9375 16.3906C25.7344 16.5781 25.7656 16.8594 25.8906 16.9844C26.7344 17.8281 31.125 15.4844 32.6562 13.5L33.4375 14.2969C35.125 16.0312 35.1719 18 33.5156 19.6562L27.7812 25.3906ZM5.17188 35.0781C2.82812 32.75 2.8125 29.7188 5.10938 27.4219C6.90625 25.625 10.9375 23.8906 12.9844 22.5625L9.4375 19.0156C8.3125 17.8906 8.3125 16.5781 9.40625 15.4844L10.6562 14.2188C11.7656 13.125 13.0625 13.1406 14.1875 14.2656L25.9688 26.0469C27.1094 27.1875 27.125 28.4531 26.0156 29.5781L24.7656 30.8438C23.6875 31.9375 22.3438 31.9375 21.2188 30.7969L17.6875 27.25C16.3594 29.3125 14.6094 33.3438 12.8125 35.1406C10.5156 37.4375 7.5 37.4062 5.17188 35.0781ZM9.14062 33.0781C10.1406 33.0781 10.9531 32.2812 10.9531 31.2812C10.9531 30.2812 10.1406 29.4688 9.14062 29.4688C8.14062 29.4688 7.32812 30.2812 7.32812 31.2812C7.32812 32.2812 8.14062 33.0781 9.14062 33.0781Z" fill="#5653B2"/>
</svg>
