<svg width="43" height="39" viewBox="0 0 43 39" fill="none" xmlns="http://www.w3.org/2000/svg">
<path d="M6.45312 18.6719L3.98438 9.375C3.28125 6.76562 4.29688 5.03125 6.92188 4.34375L20.0469 0.84375C22.6719 0.15625 24.4531 1.14062 25.1406 3.70312L27.2344 11.4844C25.5 13.4688 23.8125 15.5625 22.6094 17.1094C22.7188 16.7031 22.7812 16.25 22.7969 15.75C22.8125 15.0938 22.2812 14.8594 21.6875 15.2812C20.2188 16.3281 18.4062 16.9062 17.3438 17.1875C16.1875 17.5312 14.3281 17.9531 12.4375 17.75C11.7656 17.6562 11.4062 18.1406 11.75 18.6875C13.1562 20.9219 15.75 21.6875 18.2812 21.0312C19.2812 20.7656 20.1406 20.3438 20.7969 19.7969C20.4375 20.625 20.1719 21.6406 20.0625 22.6562C19.0312 23.0938 18.1406 23.7656 17.4531 24.6875C16.6094 25.4375 16.125 26.4219 15.7969 27.2969C11.2656 27.0625 7.875 24.0312 6.45312 18.6719ZM34.5 6.875C36.8281 4.85938 40 6.89062 38.8438 10.1094C38.4219 11.2344 36.4219 17.6562 32.9062 23.3594C31.25 20.2188 28.2188 18.125 24.7344 17.6562C28.6562 12.4375 33.6406 7.60938 34.5 6.875ZM19.7188 10.5938C20.7031 10.3281 21.1719 10.7969 21.5781 10.7031C21.875 10.6094 22.0156 10.2344 21.875 9.75C21.5625 8.53125 20.3125 7.84375 19.0938 8.17188C17.8594 8.48438 17.0938 9.71875 17.4375 10.9219C17.5938 11.4375 17.8906 11.6875 18.1719 11.6094C18.5938 11.5156 18.75 10.8438 19.7188 10.5938ZM11.6406 12.7812C12.625 12.5469 13.1094 12.9844 13.5 12.8906C13.8281 12.7969 13.9375 12.4375 13.8125 11.9375C13.4844 10.7031 12.2031 10 11.0156 10.3438C9.76562 10.6719 9.03125 11.9062 9.375 13.1094C9.53125 13.625 9.8125 13.8906 10.1094 13.8125C10.5156 13.6875 10.6719 13.0469 11.6406 12.7812ZM26.0156 24.5469C24.7656 23.6719 23.1875 23.1406 22 23.1562C21.9844 22.0156 22.3594 20.9375 23.0781 19.875C23.2188 19.6562 23.375 19.4375 23.5312 19.2344C27.1094 19.2344 30.5938 21.625 31.8438 25.0469C31.7188 25.25 31.5938 25.4531 31.4531 25.6406C30.7031 26.7031 29.8594 27.4219 28.7344 27.8281C28.3125 26.6875 27.2656 25.4219 26.0156 24.5469ZM14 34.9531C13.3594 34.3281 13.3438 33.7031 13.7812 33.2656C14.3906 32.6562 15.375 33.0469 16.4375 31.9531C17.7188 30.6562 16.3281 28.5 18.3906 26.375C20.2188 24.4688 23.5469 24.5781 25.7656 26.7812C28.25 29.2031 28.2188 32.5312 25.6562 35.1406C22.6562 38.1719 17.0938 37.9844 14 34.9531Z" fill="#5653B2"/>
</svg>
