<svg width="42" height="38" viewBox="0 0 42 38" fill="none" xmlns="http://www.w3.org/2000/svg">
<path d="M12.1562 5.70312C15.2969 5.70312 18.1562 6.96875 19.5938 9.0625C19.8906 9.46875 19.9219 9.5625 19.9219 9.95312V31.9062C19.9219 32.2812 19.6406 32.5312 19.3125 32.5312C19.1406 32.5312 18.9375 32.4688 18.7656 32.3125C17.2031 30.9844 15.0781 30.1719 12.7812 30.1719C10.3594 30.1719 7.92188 30.9844 6.09375 32.5312C5.75 32.8125 5.40625 32.9219 5.01562 32.9219C4.23438 32.9219 3.76562 32.4844 3.76562 31.75V10.9219C3.76562 10.3438 3.78125 10.1406 3.96875 9.8125C5.48438 7.21875 8.875 5.70312 12.1562 5.70312ZM29.6719 5.70312C32.9531 5.70312 36.3438 7.21875 37.8594 9.8125C38.0312 10.125 38.0469 10.3438 38.0469 10.9219V31.75C38.0469 32.4844 37.5781 32.9219 36.7969 32.9219C36.4062 32.9219 36.0625 32.8125 35.7344 32.5312C33.8906 30.9844 31.4688 30.1719 29.0312 30.1719C26.75 30.1719 24.625 30.9844 23.0469 32.3125C22.8906 32.4688 22.6875 32.5312 22.5156 32.5312C22.1719 32.5312 21.9062 32.2812 21.9062 31.9062V9.95312C21.9062 9.5625 21.9375 9.46875 22.2188 9.0625C23.6719 6.96875 26.5312 5.70312 29.6719 5.70312Z" fill="#5653B2"/>
</svg>
